<svg width="14" height="13" viewBox="0 0 14 13" fill="none" xmlns="http://www.w3.org/2000/svg">
<path d="M13.4419 7.18926C13.6217 6.98951 13.7116 6.7598 13.7116 6.50012C13.7116 6.24045 13.6217 6.01073 13.4419 5.81098L8.64788 1.01697C8.44813 0.837199 8.21842 0.747312 7.95874 0.747312C7.69907 0.747312 7.46935 0.837199 7.2696 1.01697C7.08983 1.21672 6.99994 1.44644 6.99994 1.70611C6.99994 1.96579 7.08983 2.1955 7.2696 2.39525L10.4456 5.54132H1.24713C0.967481 5.54132 0.737768 5.63121 0.557993 5.81098C0.378218 5.99076 0.28833 6.22047 0.28833 6.50012C0.28833 6.77977 0.378218 7.00948 0.557993 7.18926C0.737768 7.36903 0.967481 7.45892 1.24713 7.45892H10.4456L7.2696 10.605C7.08983 10.8047 6.99994 11.0345 6.99994 11.2941C6.99994 11.5538 7.08983 11.7835 7.2696 11.9833C7.46935 12.163 7.69907 12.2529 7.95874 12.2529C8.21842 12.2529 8.44813 12.163 8.64788 11.9833L13.4419 7.18926Z" fill="white"/>
</svg>
