<svg width="15" height="15" viewBox="0 0 15 15" fill="none" xmlns="http://www.w3.org/2000/svg">
<path d="M7.56476 0.308973C7.84549 0.3277 8.05137 0.458786 8.18237 0.702231L10.0914 4.66291L14.3866 5.28088C14.6673 5.33706 14.8545 5.49624 14.948 5.75841C15.0229 6.02058 14.9667 6.2453 14.7796 6.43257L11.6635 9.52246L12.3934 13.9045C12.4308 14.1667 12.3372 14.3914 12.1126 14.5786C11.888 14.7284 11.6541 14.7378 11.4108 14.6067L7.56476 12.5562L3.71873 14.6067C3.47543 14.7378 3.24148 14.7191 3.0169 14.5505C2.79231 14.382 2.69873 14.1667 2.73616 13.9045L3.46607 9.52246L0.349937 6.43257C0.162782 6.2453 0.106636 6.02058 0.181498 5.75841C0.275075 5.49624 0.46223 5.33706 0.742963 5.28088L5.03817 4.66291L6.94715 0.702231C7.07816 0.458786 7.28403 0.3277 7.56476 0.308973ZM7.56476 2.52807L6.07688 5.56178C5.9833 5.76777 5.81486 5.89886 5.57156 5.95504L2.25892 6.43257L4.67322 8.82021C4.82294 8.98875 4.88845 9.18538 4.86973 9.4101L4.28019 12.7809L7.25596 11.2078C7.46183 11.0955 7.6677 11.0955 7.87357 11.2078L10.8213 12.7809L10.2598 9.4101C10.2224 9.18538 10.2879 8.98875 10.4563 8.82021L12.8706 6.43257L9.55796 5.95504C9.31466 5.89886 9.14622 5.76777 9.05264 5.56178L7.56476 2.52807Z" fill="#FBA707"/>
</svg>
