<svg width="30" height="24" viewBox="0 0 30 24" fill="none" xmlns="http://www.w3.org/2000/svg">
<path d="M11.0001 2.04676C12.2935 1.63583 13.643 1.42891 15.0001 1.43342C20.5761 1.43342 24.3707 4.76676 26.6334 7.70542C27.7667 9.18009 28.3334 9.91476 28.3334 12.1001C28.3334 14.2868 27.7667 15.0214 26.6334 16.4948C24.3707 19.4334 20.5761 22.7668 15.0001 22.7668C9.42408 22.7668 5.62941 19.4334 3.36675 16.4948C2.23341 15.0228 1.66675 14.2854 1.66675 12.1001C1.66675 9.91342 2.23341 9.17876 3.36675 7.70542C4.05808 6.80252 4.82774 5.96237 5.66675 5.19476" stroke="white" stroke-width="2" stroke-linecap="round"/>
<path d="M19 12.1001C19 13.161 18.5786 14.1784 17.8284 14.9285C17.0783 15.6787 16.0609 16.1001 15 16.1001C13.9391 16.1001 12.9217 15.6787 12.1716 14.9285C11.4214 14.1784 11 13.161 11 12.1001C11 11.0392 11.4214 10.0218 12.1716 9.27167C12.9217 8.52152 13.9391 8.1001 15 8.1001C16.0609 8.1001 17.0783 8.52152 17.8284 9.27167C18.5786 10.0218 19 11.0392 19 12.1001Z" stroke="white" stroke-width="2"/>
</svg>
