<svg width="16" height="15" viewBox="0 0 16 15" fill="none" xmlns="http://www.w3.org/2000/svg">
<path d="M8.5045 0.914672C8.33597 0.596319 8.06443 0.42778 7.6899 0.409054C7.33409 0.42778 7.06256 0.596319 6.87529 0.914672L5.07754 4.62254L1.03259 5.24051C0.676789 5.29669 0.442707 5.49332 0.330347 5.8304C0.217987 6.18621 0.292894 6.4952 0.555066 6.75737L3.47641 9.65063L2.77417 13.7518C2.73671 14.1076 2.85844 14.3978 3.13934 14.6225C3.43896 14.8285 3.75731 14.8473 4.09439 14.6787L7.6899 12.7686L11.3135 14.6787C11.6318 14.8473 11.9408 14.8285 12.2405 14.6225C12.5401 14.3978 12.6618 14.1076 12.6056 13.7518L11.9315 9.65063L14.8528 6.75737C15.0963 6.4952 15.1712 6.18621 15.0775 5.8304C14.9465 5.49332 14.703 5.29669 14.3472 5.24051L10.3023 4.62254L8.5045 0.914672Z" fill="#FBA707"/>
</svg>
