<svg width="21" height="21" viewBox="0 0 21 21" fill="none" xmlns="http://www.w3.org/2000/svg">
<g clip-path="url(#clip0_2_816)">
<path d="M9.5 19V18L2.5 12C1.27604 10.8335 0.526042 9.68488 0.5 8C0.526042 6.60025 0.640625 5.03685 1.5 4C2.33333 2.98907 4.11979 2.28513 5.5 2C7.11458 1.71486 8.19792 2.09276 9.5 3C9.86458 3.23329 10.2135 3.66302 10.5 4C10.6562 3.81855 11.2917 3.15553 11.5 3C11.3438 3.10368 11.6302 2.87039 11.5 3C12.8021 2.09276 13.8854 1.74079 15.5 2C16.8802 2.28513 18.6667 2.96315 19.5 4C20.3594 5.03685 20.474 6.60025 20.5 8C20.474 9.68488 19.724 10.8335 18.5 12L11.5 18V19C11.1615 19.3111 10.9427 19 10.5 19C10.0573 19 9.83854 19.3111 9.5 19ZM9.5 6C9.5 6 9.52604 6.02592 9.5 6V5C9.03125 4.48157 8.125 4.20737 7.5 4C6.875 3.79263 6.17708 3.87039 5.5 4C4.58854 4.18145 4.07292 4.30013 3.5 5C2.92708 5.67395 2.52604 7.04091 2.5 8C2.52604 9.14053 2.66667 10.1964 3.5 11L10.5 17L17.5 11C18.3333 10.1964 18.474 9.14053 18.5 8C18.474 7.04091 18.0729 5.67395 17.5 5C16.9271 4.30013 16.4115 4.18145 15.5 4C14.8229 3.87039 14.125 3.79263 13.5 4C12.875 4.20737 11.9688 4.48157 11.5 5V6C11.5 6 11.526 5.97408 11.5 6C11.3177 6.18145 10.7604 6 10.5 6C10.2396 6 9.68229 6.18145 9.5 6Z" fill="#F82BA9"/>
</g>
<defs>
<clipPath id="clip0_2_816">
<rect width="20" height="21" fill="white" transform="matrix(1 0 0 -1 0.5 21)"/>
</clipPath>
</defs>
</svg>
