<svg width="26" height="22" viewBox="0 0 26 22" fill="none" xmlns="http://www.w3.org/2000/svg">
<path d="M22.4682 12.6378L14.9256 20.1818C14.4255 20.6817 13.7473 20.9625 13.0402 20.9625C12.3331 20.9625 11.655 20.6817 11.1549 20.1818L3.61223 12.6391C2.98872 12.021 2.49343 11.2859 2.1548 10.4759C1.81617 9.6659 1.64085 8.79699 1.63893 7.91906C1.63701 7.04112 1.80851 6.17146 2.1436 5.35998C2.47868 4.54851 2.97074 3.81121 3.59154 3.19041C4.21233 2.56962 4.94963 2.07756 5.76111 1.74247C6.57258 1.40739 7.44225 1.23589 8.32018 1.23781C9.19811 1.23973 10.067 1.41504 10.877 1.75368C11.687 2.09231 12.4222 2.5876 13.0402 3.2111C14.2957 1.98693 15.9828 1.30666 17.7363 1.31764C19.4897 1.32863 21.1682 2.02999 22.4082 3.2698C23.6482 4.50961 24.3498 6.18803 24.361 7.94147C24.3723 9.69491 23.6922 11.3822 22.4682 12.6378Z" stroke="white" stroke-width="2" stroke-linecap="round" stroke-linejoin="round"/>
</svg>
