<svg width="21" height="21" viewBox="0 0 21 21" fill="none" xmlns="http://www.w3.org/2000/svg">
<g clip-path="url(#clip0_2_813)">
<path d="M14.5 8C14.5 6.88021 15.0469 5.96354 14.5 5C13.9271 4.03646 12.4635 3.57292 11.5 3C10.5104 2.45312 9.59375 2 8.5 2C7.40625 2 6.48958 2.45312 5.5 3C4.53646 3.57292 4.07292 4.03646 3.5 5C2.95312 5.96354 2.5 6.88021 2.5 8C2.5 9.11979 2.95312 10.0365 3.5 11C4.07292 11.9635 4.53646 13.4271 5.5 14C6.48958 14.5469 7.40625 14 8.5 14C9.59375 14 10.5104 14.5469 11.5 14C12.4635 13.4271 13.9271 11.9635 14.5 11C15.0469 10.0365 14.5 9.11979 14.5 8ZM13.5 14C12.0938 15.1458 10.4531 15.974 8.5 16C6.20833 15.9479 4.03646 15.5365 2.5 14C0.963542 12.4635 0.552083 10.2917 0.5 8C0.552083 5.70833 0.963542 3.53646 2.5 2C4.03646 0.463541 6.20833 0.052084 8.5 0C10.7917 0.052084 12.9635 0.463541 14.5 2C16.0365 3.53646 16.4479 5.70833 16.5 8C16.474 9.95312 15.6458 11.5938 14.5 13L20.5 18C20.8646 18.4427 20.8646 19.5573 20.5 20C20.0573 20.3646 18.9427 20.3646 18.5 20L13.5 14Z" fill="#F82BA9"/>
</g>
<defs>
<clipPath id="clip0_2_813">
<rect width="20" height="21" fill="white" transform="matrix(1 0 0 -1 0.5 21)"/>
</clipPath>
</defs>
</svg>
