<svg width="19" height="21" viewBox="0 0 19 21" fill="none" xmlns="http://www.w3.org/2000/svg">
<g clip-path="url(#clip0_2_824)">
<path d="M6.75 4V6H12.75V4C12.7232 3.29688 12.2321 3.46875 11.75 3C11.2679 2.53125 10.4732 2.02604 9.75 2C9.02679 2.02604 8.23214 2.53125 7.75 3C7.26786 3.46875 6.77679 3.29688 6.75 4ZM5.75 8H2.75V16C2.77679 16.5208 2.40179 17.6354 2.75 18C3.125 18.3385 4.21429 17.974 4.75 18H14.75C15.2857 17.974 16.375 18.3385 16.75 18C17.0982 17.6354 16.7232 16.5208 16.75 16V8H14.75V10C14.6964 10.5729 14.3393 10.9479 13.75 11C13.1607 10.9479 12.8036 10.5729 12.75 10V8H6.75V10C6.69643 10.5729 6.33929 10.9479 5.75 11C5.16071 10.9479 5.80357 10.5729 5.75 10V8ZM5.75 6V4C5.77679 2.75 5.89286 1.80729 6.75 1C7.58036 0.166666 8.46429 0.026041 9.75 0C11.0357 0.026041 11.9196 0.166666 12.75 1C13.6071 1.80729 14.7232 2.75 14.75 4V6H16.75C17.2857 6.02604 17.375 6.66146 17.75 7C18.0982 7.36458 18.7232 7.47917 18.75 8V16C18.7232 17.0677 18.4732 18.2969 17.75 19C17.0268 19.7031 15.8482 19.974 14.75 20H4.75C3.65179 19.974 2.47321 19.7031 1.75 19C1.02679 18.2969 0.776786 17.0677 0.75 16V8C0.776786 7.47917 1.40179 7.36458 1.75 7C2.125 6.66146 2.21429 6.02604 2.75 6H5.75Z" fill="#F82BA9"/>
</g>
<defs>
<clipPath id="clip0_2_824">
<rect width="18" height="21" fill="white" transform="matrix(1 0 0 -1 0.75 21)"/>
</clipPath>
</defs>
</svg>
